<svg xmlns="http://www.w3.org/2000/svg" width="64" height="64" viewBox="0 0 64 64" role="img" aria-label="Open Med Tray"><title>Open Med Tray</title><rect width="64" height="64" rx="14" fill="#0E3A66"/><g transform="translate(8.96 19.712) scale(0.384)"><path fill="#FFFFFF" d="M2.68 38A1 1 0 0 1 1.8 36.52L18.69 5.25A10 10 0 0 1 27.48 0L92.52 0A10 10 0 0 1 101.31 5.25L118.2 36.52A1 1 0 0 1 117.32 38L109.6 38A1 1 0 0 1 108.72 37.48L93.79 9.84A3.5 3.5 0 0 0 90.71 8L29.29 8A3.5 3.5 0 0 0 26.21 9.84L11.28 37.48A1 1 0 0 1 10.4 38Z"/><path fill="#FFFFFF" d="M0 43.5A1.5 1.5 0 0 1 1.5 42L18.12 42A6 6 0 0 1 22.8 44.25L30.4 53.75A6 6 0 0 0 35.08 56L84.92 56A6 6 0 0 0 89.6 53.75L97.2 44.25A6 6 0 0 1 101.88 42L118.5 42A1.5 1.5 0 0 1 120 43.5L120 57A7 7 0 0 1 113 64L7 64A7 7 0 0 1 0 57Z"/><path fill="#6CB6F2" fill-rule="evenodd" d="M43 23.5H77A13 13 0 0 1 77 49.5H43A13 13 0 0 1 43 23.5ZM60 27.2H43A9.3 9.3 0 0 0 43 45.8H60Z"/></g></svg>
